<?xml version="1.0" standalone="no"?>
<!DOCTYPE svg PUBLIC "-//W3C//DTD SVG 20010904//EN"
 "http://www.w3.org/TR/2001/REC-SVG-20010904/DTD/svg10.dtd">
<svg version="1.0" xmlns="http://www.w3.org/2000/svg"
 width="500.000000pt" height="500.000000pt" viewBox="0 0 500.000000 500.000000"
 preserveAspectRatio="xMidYMid meet">
<metadata>
Created by potrace 1.14, written by Peter Selinger 2001-2017
</metadata>
<g transform="translate(0.000000,500.000000) scale(0.100000,-0.100000)"
fill="#000000" stroke="none">
<path d="M0 3545 c0 -800 3 -1455 6 -1455 3 0 20 11 37 24 74 57 227 115 227
87 0 -6 7 -11 15 -11 8 0 15 5 15 10 0 6 5 10 10 10 6 0 10 -6 10 -14 0 -9 7
-12 19 -9 15 4 24 -4 37 -29 9 -18 22 -36 28 -40 7 -5 11 -48 11 -120 l0 -114
-38 -45 c-20 -25 -37 -51 -37 -56 0 -6 -12 -19 -26 -29 -15 -10 -39 -29 -54
-41 -15 -13 -35 -23 -43 -23 -8 0 -17 -6 -20 -12 -5 -17 -144 -16 -174 0 l-23
13 0 -846 0 -845 2500 0 2500 0 0 1681 c0 1588 -1 1680 -18 1677 -9 -1 -18 1
-19 6 -1 5 -5 12 -10 15 -18 14 -34 54 -28 74 4 15 3 18 -3 8 -7 -9 -11 0 -16
33 -7 42 -4 51 23 88 17 22 28 45 25 50 -3 4 6 8 20 8 l26 0 0 605 c0 568 -1
606 -17 612 -28 10 -41 33 -53 91 l-11 52 -2460 0 -2459 0 0 -1455z m3679
1079 c19 -24 21 -40 21 -148 l0 -122 81 -97 81 -97 64 0 c68 0 117 -17 128
-45 3 -9 6 -850 6 -1868 l0 -1851 -22 -23 -21 -23 -1322 0 c-1274 0 -1325 1
-1397 19 -190 49 -326 171 -406 364 -57 137 -62 185 -62 634 0 224 -3 425 -6
445 -6 31 -11 38 -30 38 -37 0 -91 30 -104 59 -20 43 -21 91 -5 142 9 26 18
67 20 90 3 24 9 45 13 48 5 3 14 22 21 41 6 20 25 51 42 69 22 25 33 49 40 90
5 32 9 529 9 1139 0 1069 0 1082 20 1102 20 20 33 20 1414 20 l1395 0 20 -26z
m859 -1455 c6 -1 12 -6 12 -11 0 -4 7 -8 15 -8 8 0 15 -7 15 -15 0 -8 5 -23
11 -34 15 -23 4 -82 -20 -110 -21 -24 -77 -28 -132 -9 -41 14 -86 60 -94 99
-6 27 11 76 22 65 4 -3 13 3 21 15 13 18 22 20 76 15 33 -3 67 -6 74 -7z m25
-2796 c4 -2 5 -8 2 -13 -3 -5 0 -21 5 -36 8 -19 8 -30 0 -38 -5 -5 -10 -20
-10 -32 0 -12 -7 -25 -16 -28 -8 -3 -12 -10 -9 -16 10 -16 -84 -12 -101 4 -44
45 -35 125 18 147 15 6 28 16 28 21 0 8 64 1 83 -9z"/>
<path d="M1010 4479 c0 -6 10 -33 21 -60 l22 -49 1243 2 1244 3 0 58 0 57
-1265 0 c-888 0 -1265 -3 -1265 -11z"/>
<path d="M1241 4200 c9 -5 43 -16 75 -25 50 -13 211 -15 1198 -15 l1139 0 -23
25 -23 25 -1191 0 c-757 0 -1185 -4 -1175 -10z"/>
<path d="M990 2579 c0 -1774 -4 -1669 66 -1815 18 -39 54 -94 79 -122 49 -55
143 -108 208 -119 l37 -6 0 1742 c0 957 -3 1741 -7 1741 -5 0 -37 7 -73 14
-89 19 -163 54 -242 114 l-68 51 0 -1600z"/>
<path d="M1606 3706 c-8 -14 -31 -30 -50 -37 l-34 -12 -16 -125 c-10 -68 -16
-126 -14 -127 2 -2 23 20 47 48 24 29 66 70 95 91 75 57 209 118 264 119 l45
2 1 -530 c2 -620 -3 -748 -30 -794 -32 -55 -77 -71 -202 -71 l-109 0 32 -35
c54 -57 57 -97 53 -735 -3 -529 -4 -568 -22 -609 -11 -25 -32 -51 -50 -62 -31
-19 -25 -19 517 -19 429 0 549 3 552 13 2 6 11 89 20 182 8 94 18 188 21 210
6 38 3 35 -56 -54 -81 -124 -152 -194 -237 -234 l-68 -32 -207 -3 -207 -3 -3
343 c-2 189 0 347 5 353 12 16 136 -11 174 -38 30 -22 82 -84 120 -143 10 -15
12 1 12 87 l1 106 -27 13 c-16 7 -53 15 -83 19 -51 6 -55 8 -58 34 -3 22 -7
26 -25 22 -12 -2 -44 -6 -72 -7 l-50 -3 0 48 c1 26 2 142 3 257 l2 210 155 0
c84 0 178 -5 207 -11 115 -24 231 -101 288 -189 18 -28 34 -49 36 -47 2 2 -3
48 -11 103 -9 54 -15 127 -15 161 l1 62 -155 3 c-172 3 -190 9 -231 79 -19 33
-20 55 -23 677 l-3 642 29 0 c16 0 54 -9 86 -20 101 -35 178 -83 258 -162 49
-48 78 -70 78 -60 0 9 -7 81 -16 160 l-17 142 -497 0 -498 0 -16 -24z m258
-2095 c3 -5 -1 -14 -8 -20 -16 -13 -32 2 -21 19 8 12 22 13 29 1z"/>
<path d="M2724 3709 c62 -49 61 -36 64 -586 l3 -503 32 0 c58 0 71 10 102 72
19 40 44 71 70 90 43 31 53 60 54 150 1 47 1 47 44 59 23 6 132 35 241 65 110
30 200 54 201 54 1 0 5 -41 8 -91 3 -50 8 -93 10 -95 2 -2 20 3 40 11 20 8 52
15 71 15 30 0 38 -5 52 -31 33 -65 -16 -178 -78 -180 -31 -1 -80 -7 -83 -11
-2 -2 -7 -80 -12 -173 -10 -193 -23 -234 -83 -267 -34 -18 -33 -18 210 -17
143 0 236 4 224 9 -31 12 -72 66 -84 110 -7 27 -10 238 -8 637 3 657 1 632 64
682 l27 21 -219 0 -218 0 31 -32 c48 -51 53 -82 53 -302 l0 -201 -241 -64
c-132 -34 -243 -60 -247 -56 -4 4 -7 122 -7 263 0 283 5 315 58 364 l29 28
-217 0 -218 0 27 -21z m280 -333 c9 -30 16 -68 16 -84 0 -64 -44 -132 -86
-132 -25 0 -54 34 -54 64 0 21 53 120 76 144 8 7 17 24 20 38 3 13 8 24 9 24
2 0 11 -24 19 -54z"/>
<path d="M3000 2585 c-8 -2 -31 -6 -51 -9 -32 -6 -40 -14 -75 -77 -21 -39 -50
-81 -64 -93 -14 -12 -34 -40 -45 -62 -12 -24 -34 -46 -55 -56 -34 -18 -30 -18
210 -18 240 0 244 0 210 18 -53 26 -79 87 -87 205 -4 61 -10 97 -17 96 -6 -1
-18 -3 -26 -4z"/>
<path d="M3218 2260 c-128 -23 -231 -80 -315 -174 -125 -140 -181 -347 -169
-621 15 -333 96 -507 279 -594 45 -22 109 -44 141 -50 88 -16 262 -14 331 4
201 53 351 220 417 465 20 74 23 109 23 265 0 215 -17 310 -75 433 -65 138
-163 217 -315 257 -71 19 -251 28 -317 15z m337 -128 c28 -84 37 -230 32 -559
-3 -263 -7 -328 -21 -377 -53 -181 -152 -277 -318 -307 -84 -15 -109 -2 -132
68 -35 109 -41 184 -41 518 0 290 2 338 18 395 52 185 169 296 333 318 84 11
109 1 129 -56z"/>
<path d="M2232 1834 c-12 -21 -30 -50 -39 -63 l-17 -24 30 16 c43 22 56 41 52
78 l-3 32 -23 -39z"/>
</g>
</svg>
