<svg version="1.1" id="Layer_1" xmlns="http://www.w3.org/2000/svg" xmlns:xlink="http://www.w3.org/1999/xlink" x="0px" y="0px"
	 width="100%" viewBox="0 0 496 496" enable-background="new 0 0 496 496" xml:space="preserve">
<path fill="#000000" opacity="1.000000" stroke="none" 
	d="
M325.793884,161.302750 
	C311.362671,160.044479 297.394104,160.030518 283.418427,161.180588 
	C281.933960,161.302750 280.405151,161.267899 278.932861,161.056091 
	C277.228363,160.810883 275.600250,160.095123 275.294952,158.157639 
	C274.971039,156.102036 276.397522,154.957855 278.131836,154.686081 
	C290.927246,152.680893 292.936737,144.107117 292.100983,133.068954 
	C291.486145,124.948631 291.864807,116.743004 292.014923,108.579330 
	C292.083618,104.843719 290.949554,103.217499 286.882568,103.261078 
	C270.384766,103.437859 253.883057,103.416290 237.384766,103.258766 
	C233.454224,103.221245 232.069260,104.646820 232.131424,108.505661 
	C232.292496,118.502899 232.160339,128.504486 232.205322,138.504074 
	C232.244095,147.122833 235.104034,150.923782 243.128677,153.571136 
	C245.774536,154.444000 250.253784,154.183441 249.588776,158.219711 
	C248.915314,162.307205 244.575394,161.330536 241.583755,161.147354 
	C227.770676,160.301498 213.972855,159.839615 200.170013,161.274643 
	C198.851044,161.411774 197.504059,161.330521 196.172455,161.283463 
	C193.969803,161.205643 191.459869,161.133316 190.968948,158.468536 
	C190.459991,155.705750 192.886993,154.902283 194.948837,154.165375 
	C205.818542,150.280502 206.645767,149.145905 206.649185,137.710358 
	C206.656952,111.710754 206.657730,85.711159 206.655960,59.711555 
	C206.655182,48.093914 206.124695,47.299866 195.454849,43.524971 
	C193.314758,42.767826 190.827667,41.861336 191.333023,39.326847 
	C192.076385,35.598583 195.718628,36.062664 198.334991,36.245113 
	C210.161041,37.069798 221.987946,36.645557 233.814026,36.647640 
	C237.306931,36.648254 240.802689,36.320793 244.291702,36.395912 
	C246.269897,36.438503 248.602310,36.734013 248.882874,39.310856 
	C249.148346,41.749290 247.243607,42.709114 245.218643,43.340679 
	C243.629166,43.836430 242.033356,44.319069 240.468384,44.885006 
	C234.136658,47.174740 232.297241,49.614014 232.238693,56.342113 
	C232.147308,66.841133 232.326202,77.343773 232.128845,87.839966 
	C232.053436,91.850632 233.693481,93.028145 237.470016,92.999298 
	C253.802155,92.874557 270.136627,92.846474 286.468201,93.002098 
	C290.566071,93.041138 292.091797,91.644753 292.009705,87.505577 
	C291.804840,77.176453 292.024170,66.839554 291.888458,56.508205 
	C291.793945,49.312984 289.687927,46.665035 282.958832,44.483337 
	C282.326935,44.278461 281.632843,44.242481 281.025208,43.989655 
	C278.552368,42.960712 274.639465,42.859676 275.474243,38.961208 
	C276.187408,35.630604 279.660156,36.281353 282.239716,36.373356 
	C296.399536,36.878387 310.553314,36.907963 324.716156,36.413204 
	C327.663849,36.310226 332.023010,35.241570 332.680603,39.355259 
	C333.309753,43.290783 328.908936,43.403446 326.223907,44.163445 
	C321.110413,45.610821 318.433594,48.542862 317.886230,53.994015 
	C317.431396,58.524120 317.924866,62.977581 317.888794,67.463890 
	C317.703857,90.447800 317.550842,113.432037 317.447327,136.416428 
	C317.435394,139.066193 317.851685,141.715210 317.979095,144.368896 
	C318.212158,149.224350 320.907318,151.954361 325.409149,153.189514 
	C326.050629,153.365524 326.707642,153.507004 327.323486,153.750488 
	C329.689758,154.686127 333.383789,154.778046 332.841431,158.313507 
	C332.329773,161.649063 328.896057,161.200287 325.793884,161.302750 
z"/>
<path fill="#000000" opacity="1.000000" stroke="none" 
	d="
M56.103565,215.147980 
	C84.279449,181.481247 144.062897,185.871643 165.433533,225.930801 
	C183.342346,259.500824 167.129120,314.500793 116.564758,320.418976 
	C90.196396,323.505157 67.891052,316.062988 52.108471,294.100403 
	C35.599464,271.126984 37.559406,239.018524 56.103565,215.147980 
M80.070686,212.587708 
	C75.706161,217.584106 73.111061,223.448654 71.396904,229.802567 
	C68.933411,238.934036 68.795555,248.266525 69.433037,257.545135 
	C70.412117,271.795898 73.660515,285.475525 82.125481,297.403900 
	C89.975777,308.466064 100.748589,313.222626 114.128159,311.510193 
	C127.376656,309.814575 136.105316,301.784027 140.174515,289.609344 
	C148.219925,265.538330 145.963913,241.877563 133.501511,219.849533 
	C121.905281,199.352554 97.017426,196.102600 80.070686,212.587708 
z"/>
<path fill="#000000" opacity="1.000000" stroke="none" 
	d="
M351.210175,225.347992 
	C374.319763,182.511780 439.659821,181.943039 465.285400,222.163452 
	C486.465454,255.406433 471.024963,313.883392 418.903442,320.449982 
	C399.439117,322.902191 381.732941,319.128113 366.223755,307.065979 
	C342.773499,288.827789 337.271362,257.928253 349.101044,229.734772 
	C349.680359,228.354126 350.383606,227.025482 351.210175,225.347992 
M382.087952,294.400177 
	C382.935364,295.634003 383.739960,296.899933 384.636536,298.096924 
	C400.214355,318.894684 429.848907,315.998962 441.068909,292.556549 
	C444.118378,286.185120 445.511932,279.351868 446.073578,272.354095 
	C447.582764,253.551254 445.191833,235.418274 435.116486,219.117569 
	C427.365326,206.577179 415.835388,200.398819 400.886078,202.564346 
	C386.130768,204.701752 377.590088,214.231262 374.085754,228.061600 
	C368.319183,250.820389 370.607483,272.870605 382.087952,294.400177 
z"/>
<path fill="#000000" opacity="1.000000" stroke="none" 
	d="
M63.138100,362.114441 
	C82.102356,345.782288 103.697296,340.840637 127.720924,345.108582 
	C134.757874,346.358765 141.810974,347.453400 148.667740,349.587677 
	C151.983551,350.619812 153.712570,352.790863 154.094833,356.008820 
	C154.819962,362.112915 155.424606,368.234894 155.900101,374.363342 
	C156.083649,376.729034 155.750641,379.288513 152.953995,380.051178 
	C150.128189,380.821777 148.733109,378.746643 147.600296,376.592621 
	C146.360077,374.234406 145.227325,371.817505 143.930313,369.491638 
	C138.510651,359.772827 129.938583,354.979309 119.090363,354.286804 
	C94.431480,352.712860 77.671890,365.105133 72.109207,390.222809 
	C67.479439,411.127991 69.420975,431.392822 83.182632,448.995178 
	C91.670044,459.851257 103.375488,463.245453 116.632271,461.485382 
	C124.680359,460.416840 129.407166,455.018860 130.877350,446.906952 
	C131.809540,441.763367 131.450607,436.612152 131.690323,431.463989 
	C131.869064,427.625427 130.153870,425.143738 126.875641,423.472260 
	C123.574684,421.789154 120.049309,420.891602 116.420074,420.283905 
	C113.551796,419.803650 110.146164,419.093781 110.462395,415.547119 
	C110.795197,411.814636 114.589050,411.984039 117.260796,412.178253 
	C128.249557,412.977112 139.241440,412.684509 150.233154,412.672577 
	C154.384735,412.668091 158.537445,412.393555 162.687012,412.446808 
	C164.386505,412.468567 166.002563,413.135742 166.255203,415.249268 
	C166.483398,417.158417 165.679260,418.835236 163.922318,419.188934 
	C152.748367,421.438293 153.317291,430.628571 152.502686,438.716309 
	C152.015289,443.555328 151.386612,448.598053 155.278763,452.923462 
	C157.261719,455.127136 156.955551,458.190277 153.881149,459.657196 
	C138.146530,467.164978 122.072838,473.130798 104.117996,472.309021 
	C74.944038,470.973663 49.261017,451.328705 43.336956,424.535278 
	C37.971893,400.270050 44.981808,379.505371 63.138100,362.114441 
z"/>
<path fill="#000000" opacity="1.000000" stroke="none" 
	d="
M411.349304,116.030075 
	C411.351807,124.519798 411.265472,132.516205 411.380981,140.509705 
	C411.500275,148.765472 414.447937,151.676346 422.515442,151.743759 
	C427.845001,151.788300 433.178741,151.612274 438.504608,151.756836 
	C447.746460,152.007721 454.499481,148.051468 459.032867,140.095016 
	C460.351410,137.780945 461.641693,135.448410 463.040466,133.183334 
	C463.849426,131.873322 464.953339,130.709198 466.697479,131.232880 
	C468.351685,131.729553 469.127594,133.281082 469.004669,134.757324 
	C468.294525,143.285324 465.750488,151.370621 462.340576,159.152390 
	C461.245789,161.650879 458.435425,161.311096 456.101288,161.269196 
	C440.285370,160.985382 424.470245,160.494888 408.653900,160.454468 
	C397.840790,160.426865 387.026489,161.032898 376.211731,161.318176 
	C374.721893,161.357483 373.203033,161.315659 371.740143,161.064041 
	C370.357056,160.826141 369.262482,159.916153 369.029907,158.465820 
	C368.781281,156.915146 369.827545,155.906281 371.095215,155.385864 
	C373.396759,154.441040 375.775452,153.681122 378.133209,152.877075 
	C383.273712,151.124039 386.017670,147.792511 386.002838,142.116119 
	C385.927551,113.301582 386.049927,84.486359 385.913269,55.672272 
	C385.878510,48.343822 383.963226,46.519463 376.512329,44.246979 
	C373.657104,43.376148 369.211914,43.267315 370.033234,38.952312 
	C370.744141,35.217102 374.961517,36.082172 377.687347,36.227081 
	C398.165802,37.315727 418.649780,36.544727 439.129028,36.628834 
	C443.774963,36.647911 448.424103,36.136391 453.070038,35.842216 
	C457.494965,35.562046 459.848969,37.403553 460.363739,42.013721 
	C461.007935,47.782932 462.169312,53.492672 462.998901,59.243740 
	C463.340515,61.611969 463.375092,64.290688 460.530792,65.055405 
	C457.542450,65.858864 456.618164,63.305126 455.732330,61.090755 
	C454.805603,58.774330 453.914307,56.442028 452.919434,54.154984 
	C451.458740,50.796951 449.039703,48.057491 445.640320,46.961769 
	C435.927002,43.830833 425.948151,44.736568 416.105072,46.203541 
	C412.532410,46.736000 411.399506,50.159870 411.385742,53.576283 
	C411.340729,64.735924 411.388855,75.895935 411.347015,87.055603 
	C411.332184,91.014229 413.121063,92.835236 417.144073,92.722061 
	C421.970703,92.586288 426.810883,92.524689 431.632446,92.730095 
	C436.703735,92.946144 439.638733,90.502213 441.661530,86.095215 
	C442.944550,83.299889 443.081665,78.202995 447.363831,79.211700 
	C451.625488,80.215591 449.441376,84.702057 449.431030,87.863968 
	C449.404907,95.854324 449.500702,103.845451 449.601807,111.835587 
	C449.627045,113.829201 450.164307,116.246643 447.685425,116.885559 
	C445.027313,117.570679 443.971191,115.225975 443.085907,113.231461 
	C442.481018,111.868652 442.106720,110.402885 441.638489,108.980133 
	C439.925751,103.775620 436.616425,100.992256 430.853180,101.331596 
	C426.703339,101.575928 422.526459,101.318192 418.363892,101.399086 
	C412.575104,101.511589 411.427155,102.720467 411.356171,108.539993 
	C411.327728,110.871498 411.349945,113.203629 411.349304,116.030075 
z"/>
<path fill="#000000" opacity="1.000000" stroke="none" 
	d="
M362.056091,441.840057 
	C343.665985,410.668396 353.013824,374.061066 384.125244,355.434692 
	C409.064178,340.503845 435.317444,340.856842 462.093475,349.668060 
	C465.399292,350.755920 467.188599,353.014130 467.418884,356.696411 
	C467.812500,362.990997 468.597992,369.260193 469.067200,375.551361 
	C469.240753,377.879120 469.231598,380.480164 466.223633,381.181702 
	C463.188110,381.889648 461.294098,380.133850 460.699310,377.435791 
	C457.290405,361.972534 446.699890,354.992035 431.942871,353.446777 
	C414.350708,351.604675 400.204529,357.934540 390.449860,372.888885 
	C376.668121,394.016876 379.018555,427.718628 394.690948,447.590668 
	C410.697388,467.886292 446.947327,469.312378 461.212494,442.310486 
	C462.783936,439.335938 464.081116,434.802307 468.467468,436.402557 
	C472.584625,437.904572 470.557800,442.385681 470.110260,445.334595 
	C469.342834,450.391357 467.636658,455.312836 466.220459,460.261292 
	C465.375763,463.212830 463.210052,465.127747 460.413788,466.031342 
	C431.943176,475.231079 404.190796,475.961792 378.162476,458.537567 
	C371.727966,454.230103 366.524506,448.611816 362.056091,441.840057 
z"/>
<path fill="#000000" opacity="1.000000" stroke="none" 
	d="
M52.929016,48.811783 
	C49.612480,50.649670 47.527100,53.214375 45.447227,55.846897 
	C43.598717,58.186581 41.564762,60.401352 39.430515,62.484661 
	C38.350075,63.539322 36.806728,63.984791 35.255764,63.291218 
	C33.525745,62.517578 33.701233,60.892292 33.702171,59.411411 
	C33.702690,58.588985 33.678967,57.658409 34.031174,56.960880 
	C38.039589,49.022488 40.710690,40.723064 41.912853,31.861595 
	C42.426044,28.078735 46.780258,27.136417 48.927979,30.436222 
	C53.231468,37.048195 59.560394,37.704891 66.405647,37.695442 
	C88.556900,37.664860 110.708206,37.662895 132.859497,37.668350 
	C140.479248,37.670227 147.823959,36.910851 153.761246,31.301073 
	C154.960464,30.168001 156.668976,29.232374 158.308990,30.338329 
	C159.962097,31.453110 160.339142,33.354198 159.996979,35.259243 
	C159.468323,38.202721 158.931824,41.155571 158.168396,44.043583 
	C157.015427,48.405285 156.162537,52.758747 156.259613,57.319603 
	C156.321823,60.241737 156.560959,64.145683 152.744019,64.575829 
	C149.257233,64.968758 148.895874,61.062378 147.794754,58.569389 
	C147.191742,57.204086 146.873291,55.711658 146.254578,54.354965 
	C144.074570,49.574715 140.395187,46.624905 135.101379,46.356220 
	C128.954041,46.044212 122.787109,46.105827 116.628334,46.035538 
	C112.296608,45.986099 109.871956,48.022205 109.199448,52.428394 
	C108.721321,55.561047 108.297806,58.659107 108.302170,61.839363 
	C108.337311,87.488152 108.314888,113.137016 108.323082,138.785858 
	C108.325745,147.100586 110.295174,149.889954 118.231125,152.830643 
	C119.944206,153.465439 121.706680,153.967255 123.447830,154.525864 
	C125.254883,155.105606 127.159004,155.846085 126.985161,158.091003 
	C126.785072,160.674789 124.470184,160.848434 122.503731,161.143051 
	C121.524384,161.289810 120.504250,161.276382 119.511696,161.206253 
	C103.882248,160.102036 88.262672,160.108566 72.626755,161.226028 
	C69.536209,161.446899 64.800446,162.459137 64.417702,158.007614 
	C64.082550,154.109680 68.733841,154.290695 71.645477,153.492432 
	C80.402641,151.091599 82.742767,148.135468 82.746078,139.007401 
	C82.755936,111.859726 82.763969,84.711922 82.687790,57.564407 
	C82.658142,46.998787 82.015205,46.401989 71.296173,46.077217 
	C65.151253,45.891029 58.929924,45.408207 52.929016,48.811783 
z"/>
<path fill="#000000" opacity="1.000000" stroke="none" 
	d="
M222.282990,206.946472 
	C219.462814,203.336105 215.526505,202.976257 211.867920,201.949097 
	C209.613510,201.316162 206.896805,200.571762 207.123642,197.672867 
	C207.366714,194.566391 210.218124,194.678726 212.550354,194.675156 
	C229.205688,194.649750 245.861084,194.659958 262.516449,194.665207 
	C264.753174,194.665909 267.193909,194.750137 267.536011,197.572708 
	C267.872345,200.347839 265.482025,201.146179 263.398468,201.768387 
	C246.455536,206.828064 249.298767,207.842133 249.215668,222.083862 
	C249.068909,247.237518 249.158463,272.392792 249.214966,297.547272 
	C249.235596,306.732666 251.241165,308.701965 260.329193,308.792816 
	C266.159180,308.851074 272.016449,308.461487 277.814911,308.895081 
	C288.353363,309.683075 295.145050,304.312408 300.311279,296.034790 
	C302.245148,292.936218 303.734039,289.563019 305.578705,286.404327 
	C306.412964,284.975800 307.618042,283.462250 309.556122,284.050385 
	C311.707611,284.703308 312.048340,286.771393 311.712891,288.575562 
	C309.982849,297.880066 307.172913,306.953064 305.838043,316.356262 
	C305.418457,319.312073 302.751556,319.371155 300.308380,319.347260 
	C285.649750,319.203796 270.970520,319.523193 256.338196,318.836273 
	C243.822952,318.248749 231.380753,318.598907 218.910736,319.283997 
	C216.585312,319.411743 214.246948,319.343079 211.915390,319.308716 
	C209.664948,319.275543 207.289398,319.025574 206.982849,316.239777 
	C206.706360,313.727295 208.937729,313.020996 210.810593,312.309204 
	C212.829605,311.541901 214.920578,310.958771 216.921539,310.150208 
	C221.436401,308.325775 223.641098,304.879547 223.643005,300.045868 
	C223.654556,270.893250 223.641937,241.740631 223.667007,212.588028 
	C223.668640,210.702972 223.238174,208.967636 222.282990,206.946472 
z"/>
<path fill="#000000" opacity="1.000000" stroke="none" 
	d="
M251.001770,345.875488 
	C261.997314,345.815094 272.493042,345.713074 282.989014,345.679993 
	C285.443756,345.672272 288.564178,345.300903 288.878479,348.712646 
	C289.145721,351.613220 286.258301,352.265381 284.092346,352.986359 
	C272.658813,356.792206 271.647888,358.248779 271.426331,370.517120 
	C270.950958,396.838470 272.512634,423.151276 271.654846,449.476868 
	C271.427124,456.465302 274.484650,459.678925 282.532867,462.435944 
	C285.337311,463.396667 290.027283,463.217743 289.320007,467.442688 
	C288.637756,471.518005 284.180817,470.344360 281.239929,470.145020 
	C266.762146,469.163727 252.304214,469.035675 237.839310,470.282227 
	C236.351135,470.410461 234.839264,470.343597 233.342636,470.274841 
	C231.293427,470.180695 229.084061,469.954437 228.636124,467.489960 
	C228.173645,464.945465 230.217819,464.073853 232.179031,463.418915 
	C234.070206,462.787384 235.987961,462.230530 237.908691,461.693268 
	C243.667984,460.082306 246.564453,456.103973 246.584549,450.324249 
	C246.682541,422.164093 246.722992,394.002960 246.581512,365.843201 
	C246.544174,358.410156 243.801620,355.443573 236.602295,353.505798 
	C235.320175,353.160706 234.004852,352.919128 232.750732,352.494293 
	C230.684753,351.794434 229.093079,350.513519 229.616440,348.104828 
	C230.106857,345.847809 232.130890,345.684570 234.008026,345.692505 
	C239.506180,345.715729 245.004074,345.799164 251.001770,345.875488 
z"/>
</svg>