<?xml version="1.0" standalone="no"?>
<!DOCTYPE svg PUBLIC "-//W3C//DTD SVG 20010904//EN"
 "http://www.w3.org/TR/2001/REC-SVG-20010904/DTD/svg10.dtd">
<svg version="1.0" xmlns="http://www.w3.org/2000/svg"
 width="500.000000pt" height="500.000000pt" viewBox="0 0 500.000000 500.000000"
 preserveAspectRatio="xMidYMid meet">
<metadata>
Created by potrace 1.14, written by Peter Selinger 2001-2017
</metadata>
<g transform="translate(0.000000,500.000000) scale(0.100000,-0.100000)"
fill="#000000" stroke="none">
<path d="M0 2500 l0 -2500 2500 0 2500 0 0 2500 0 2500 -2500 0 -2500 0 0
-2500z m3679 2124 c19 -24 21 -40 21 -151 l0 -124 81 -94 81 -95 68 0 c59 0
73 -4 99 -26 l31 -26 0 -1854 0 -1855 -25 -24 -24 -25 -1313 0 c-1453 0 -1388
-2 -1525 65 -163 80 -286 261 -329 482 -15 78 -15 77 -14 2461 0 1239 0 1252
20 1272 20 20 33 20 1414 20 l1395 0 20 -26z"/>
<path d="M1010 4486 c0 -10 10 -40 21 -67 l22 -49 1243 1 1244 1 0 59 0 59
-732 0 c-403 0 -973 3 -1265 7 -501 6 -533 5 -533 -11z"/>
<path d="M1226 4209 c3 -5 35 -18 72 -30 67 -21 68 -21 1207 -19 627 1 1140 2
1141 3 1 1 -5 11 -15 23 l-17 21 -1197 5 c-658 3 -1194 2 -1191 -3z"/>
<path d="M990 2578 c0 -1768 -3 -1674 63 -1813 60 -124 168 -217 285 -243 l42
-10 0 1743 0 1743 -67 15 c-110 25 -174 53 -250 112 l-73 55 0 -1602z"/>
<path d="M1551 3710 c-20 -17 -26 -38 -42 -143 -27 -181 -31 -175 64 -83 84
83 159 131 263 166 32 11 68 20 81 20 l23 0 -2 -642 c-3 -611 -4 -645 -22
-682 -30 -60 -75 -76 -216 -76 l-115 0 31 -19 c21 -13 38 -36 50 -68 18 -45
19 -86 19 -643 0 -557 -1 -598 -19 -643 -12 -32 -29 -55 -50 -68 -31 -19 -27
-19 520 -19 l551 0 7 68 c3 37 13 130 21 207 8 77 15 147 15 155 0 8 -27 -27
-60 -79 -78 -120 -147 -189 -235 -232 l-70 -34 -207 -3 -208 -4 0 352 0 352
53 -7 c102 -14 171 -63 229 -164 13 -23 27 -41 32 -41 5 0 6 39 2 92 -3 50 -6
105 -6 122 0 24 -7 35 -30 48 -39 22 -39 52 1 88 28 27 30 33 27 86 l-3 58
-43 -67 c-60 -93 -100 -117 -214 -131 l-48 -6 0 260 0 260 148 0 c172 0 257
-15 342 -61 54 -29 139 -107 183 -169 l18 -25 -5 35 c-3 19 -11 94 -17 167
l-13 132 -152 3 c-173 3 -192 10 -229 84 -19 38 -20 62 -23 677 l-3 637 25 0
c42 0 149 -38 211 -75 83 -50 140 -99 183 -156 20 -27 37 -47 38 -46 1 1 -7
70 -17 152 -10 83 -18 158 -18 168 -1 16 -33 17 -523 17 -507 -1 -524 -1 -547
-20z"/>
<path d="M2729 3704 c59 -49 61 -73 61 -624 0 -484 1 -497 20 -515 25 -22 25
-41 1 -85 -10 -19 -22 -51 -26 -70 -13 -59 -42 -106 -77 -123 -31 -16 -21 -17
212 -17 244 0 245 0 210 19 -58 31 -72 67 -81 210 -4 69 -8 134 -9 143 0 12
-8 16 -27 15 -25 -2 -28 1 -25 28 2 17 14 39 28 50 23 19 26 28 31 133 l6 112
41 11 c80 21 411 110 429 115 15 5 17 -3 17 -78 0 -46 3 -99 6 -120 l6 -36 44
16 c40 15 45 15 60 0 11 -11 14 -25 10 -46 -8 -33 -40 -52 -86 -52 -17 0 -30
-3 -31 -7 0 -5 -4 -96 -8 -203 -8 -222 -17 -257 -80 -290 l-36 -19 244 -1 244
0 -33 23 c-19 12 -43 38 -54 57 -20 34 -21 51 -24 619 -3 649 -1 674 53 728
l33 33 -218 0 -218 0 33 -33 c49 -49 56 -90 53 -309 l-3 -193 -235 -62 c-129
-34 -239 -63 -243 -63 -4 0 -7 125 -5 278 3 247 5 281 22 315 10 21 30 44 45
52 23 13 2 14 -197 15 l-224 0 31 -26z"/>
<path d="M3190 2255 c-108 -24 -199 -76 -273 -154 -138 -147 -196 -347 -184
-635 16 -382 126 -566 377 -635 96 -27 298 -29 381 -5 200 59 346 222 411 459
19 70 22 105 22 280 0 174 -3 211 -22 283 -58 221 -171 346 -358 396 -86 24
-274 29 -354 11z m342 -83 c9 -8 25 -49 35 -91 16 -66 18 -125 18 -441 0 -318
-2 -373 -18 -430 -52 -191 -152 -293 -315 -319 -79 -13 -99 -6 -122 39 -45 89
-55 184 -55 535 0 284 2 339 18 395 53 198 160 301 340 328 57 9 73 6 99 -16z"/>
</g>
</svg>
